<?xml version="1.0" encoding="UTF-8"?>
<svg xmlns="http://www.w3.org/2000/svg" xmlns:xlink="http://www.w3.org/1999/xlink" viewBox="0 0 50 50" width="50px" height="50px">
<g id="surface129607987">
<path style=" stroke:none;fill-rule:nonzero;fill:rgb(100%,100%,100%);fill-opacity:1;" d="M 42.945312 10.71875 C 38.648438 7.261719 31.851562 6.679688 31.5625 6.652344 C 31.109375 6.613281 30.679688 6.871094 30.492188 7.289062 C 30.480469 7.316406 30.332031 7.65625 30.167969 8.1875 C 33.007812 8.664062 36.5 9.628906 39.660156 11.589844 C 40.164062 11.90625 40.320312 12.570312 40.007812 13.078125 C 39.804688 13.410156 39.449219 13.589844 39.085938 13.589844 C 38.894531 13.589844 38.699219 13.535156 38.519531 13.425781 C 33.089844 10.058594 26.304688 9.890625 25 9.890625 C 23.695312 9.890625 16.910156 10.058594 11.484375 13.425781 C 10.976562 13.742188 10.3125 13.585938 9.996094 13.078125 C 9.679688 12.570312 9.835938 11.90625 10.34375 11.589844 C 13.503906 9.632812 16.992188 8.664062 19.835938 8.1875 C 19.667969 7.652344 19.519531 7.316406 19.507812 7.289062 C 19.320312 6.871094 18.894531 6.609375 18.4375 6.65625 C 18.148438 6.679688 11.351562 7.261719 6.996094 10.769531 C 4.722656 12.867188 0.171875 25.164062 0.171875 35.792969 C 0.171875 35.980469 0.222656 36.167969 0.316406 36.328125 C 3.457031 41.84375 12.019531 43.289062 13.96875 43.351562 C 13.980469 43.351562 13.992188 43.351562 14.003906 43.351562 C 14.347656 43.351562 14.675781 43.1875 14.878906 42.90625 L 16.851562 40.195312 C 11.527344 38.816406 8.808594 36.480469 8.652344 36.34375 C 8.203125 35.949219 8.160156 35.265625 8.554688 34.820312 C 8.949219 34.371094 9.628906 34.332031 10.078125 34.722656 C 10.140625 34.78125 15.152344 39.03125 25 39.03125 C 34.867188 39.03125 39.875 34.761719 39.925781 34.71875 C 40.371094 34.332031 41.054688 34.371094 41.445312 34.820312 C 41.839844 35.269531 41.796875 35.949219 41.351562 36.339844 C 41.195312 36.480469 38.472656 38.816406 33.148438 40.191406 L 35.125 42.902344 C 35.328125 43.183594 35.652344 43.347656 35.996094 43.347656 C 36.007812 43.347656 36.019531 43.347656 36.03125 43.347656 C 37.984375 43.289062 46.546875 41.84375 49.6875 36.328125 C 49.777344 36.164062 49.828125 35.980469 49.828125 35.792969 C 49.828125 25.164062 45.277344 12.867188 42.945312 10.71875 Z M 17.984375 31.476562 C 15.898438 31.476562 14.203125 29.542969 14.203125 27.160156 C 14.203125 24.777344 15.894531 22.84375 17.984375 22.84375 C 20.070312 22.84375 21.761719 24.777344 21.761719 27.160156 C 21.761719 29.542969 20.070312 31.476562 17.984375 31.476562 Z M 32.015625 31.476562 C 29.929688 31.476562 28.238281 29.542969 28.238281 27.160156 C 28.238281 24.777344 29.929688 22.84375 32.015625 22.84375 C 34.101562 22.84375 35.792969 24.777344 35.792969 27.160156 C 35.792969 29.542969 34.101562 31.476562 32.015625 31.476562 Z M 32.015625 31.476562 "/>
</g>
</svg>
