<?xml version="1.0" encoding="UTF-8"?>
<svg xmlns="http://www.w3.org/2000/svg" xmlns:xlink="http://www.w3.org/1999/xlink" viewBox="0 0 50 50" width="50px" height="50px">
<g id="surface146959688">
<path style=" stroke:none;fill-rule:nonzero;fill:rgb(100%,100%,100%);fill-opacity:1;" d="M 25 1 C 11.746094 1 1 11.746094 1 25 C 1 37.03125 9.863281 46.96875 21.410156 48.703125 L 21.410156 31.359375 L 15.472656 31.359375 L 15.472656 25.050781 L 21.410156 25.050781 L 21.410156 20.855469 C 21.410156 13.902344 24.796875 10.855469 30.574219 10.855469 C 33.339844 10.855469 34.804688 11.058594 35.496094 11.152344 L 35.496094 16.65625 L 31.554688 16.65625 C 29.105469 16.65625 28.246094 18.984375 28.246094 21.605469 L 28.246094 25.050781 L 35.433594 25.050781 L 34.460938 31.359375 L 28.246094 31.359375 L 28.246094 48.753906 C 39.960938 47.164062 49 37.148438 49 25 C 49 11.746094 38.253906 1 25 1 Z M 25 1 "/>
</g>
</svg>
