<?xml version="1.0" encoding="UTF-8"?>
<svg xmlns="http://www.w3.org/2000/svg" xmlns:xlink="http://www.w3.org/1999/xlink" viewBox="0 0 50 50" width="50px" height="50px">
<g id="surface35359827">
<path style=" stroke:none;fill-rule:evenodd;fill:rgb(100%,100%,100%);fill-opacity:1;" d="M 25 0.390625 C 11.40625 0.390625 0.390625 11.40625 0.390625 25 C 0.390625 35.871094 7.441406 45.097656 17.222656 48.351562 C 18.457031 48.574219 18.902344 47.824219 18.902344 47.167969 C 18.902344 46.582031 18.878906 45.035156 18.871094 42.984375 C 12.023438 44.464844 10.582031 39.683594 10.582031 39.683594 C 9.457031 36.839844 7.847656 36.078125 7.847656 36.078125 C 5.613281 34.558594 8.015625 34.589844 8.015625 34.589844 C 10.484375 34.765625 11.78125 37.121094 11.78125 37.121094 C 13.976562 40.886719 17.542969 39.796875 18.945312 39.171875 C 19.167969 37.578125 19.808594 36.496094 20.507812 35.878906 C 15.042969 35.261719 9.296875 33.148438 9.296875 23.71875 C 9.296875 21.027344 10.261719 18.832031 11.832031 17.109375 C 11.582031 16.492188 10.734375 13.984375 12.070312 10.597656 C 12.070312 10.597656 14.136719 9.941406 18.839844 13.121094 C 20.800781 12.574219 22.910156 12.304688 25 12.292969 C 27.089844 12.304688 29.199219 12.574219 31.160156 13.121094 C 35.863281 9.941406 37.921875 10.597656 37.921875 10.597656 C 39.265625 13.984375 38.425781 16.492188 38.167969 17.109375 C 39.75 18.832031 40.691406 21.027344 40.691406 23.71875 C 40.691406 33.171875 34.941406 35.246094 29.460938 35.863281 C 30.34375 36.617188 31.128906 38.121094 31.128906 40.414062 C 31.128906 43.707031 31.105469 46.355469 31.105469 47.167969 C 31.105469 47.824219 31.546875 48.59375 32.792969 48.351562 C 42.566406 45.089844 49.609375 35.871094 49.609375 25 C 49.609375 11.40625 38.59375 0.390625 25 0.390625 Z M 25 0.390625 "/>
</g>
</svg>
