<?xml version="1.0" encoding="UTF-8"?>
<svg xmlns="http://www.w3.org/2000/svg" xmlns:xlink="http://www.w3.org/1999/xlink" viewBox="0 0 50 50" width="50px" height="50px">
<g id="surface146996246">
<path style=" stroke:none;fill-rule:nonzero;fill:rgb(100%,100%,100%);fill-opacity:1;" d="M 25 0.695312 C 11.578125 0.695312 0.695312 11.578125 0.695312 25 C 0.695312 38.421875 11.578125 49.304688 25 49.304688 C 38.421875 49.304688 49.304688 38.421875 49.304688 25 C 49.304688 11.578125 38.421875 0.695312 25 0.695312 Z M 25 0.695312 "/>
<path style=" stroke:none;fill-rule:nonzero;fill:rgb(0%,0%,0%);fill-opacity:1;" d="M 37.09375 14.0625 L 32.539062 37.304688 C 32.539062 37.304688 32.34375 38.367188 31.027344 38.367188 C 30.328125 38.367188 29.964844 38.035156 29.964844 38.035156 L 20.105469 29.851562 L 15.28125 27.421875 L 9.089844 25.773438 C 9.089844 25.773438 7.984375 25.457031 7.984375 24.542969 C 7.984375 23.785156 9.121094 23.421875 9.121094 23.421875 L 35.023438 13.132812 C 35.023438 13.128906 35.816406 12.847656 36.394531 12.847656 C 36.75 12.847656 37.152344 13 37.152344 13.453125 C 37.152344 13.757812 37.09375 14.0625 37.09375 14.0625 Z M 37.09375 14.0625 "/>
<path style=" stroke:none;fill-rule:nonzero;fill:rgb(0%,0%,0%);fill-opacity:1;" d="M 23.785156 32.90625 L 19.621094 37.003906 C 19.621094 37.003906 19.441406 37.144531 19.199219 37.152344 C 19.113281 37.152344 19.023438 37.140625 18.933594 37.097656 L 20.105469 29.851562 Z M 23.785156 32.90625 "/>
<path style=" stroke:none;fill-rule:nonzero;fill:rgb(0%,0%,0%);fill-opacity:1;" d="M 32.167969 17.945312 C 31.960938 17.679688 31.582031 17.628906 31.316406 17.832031 L 15.277344 27.429688 C 15.277344 27.429688 17.835938 34.589844 18.226562 35.832031 C 18.617188 37.070312 18.933594 37.101562 18.933594 37.101562 L 20.105469 29.851562 L 32.050781 18.796875 C 32.320312 18.59375 32.371094 18.214844 32.167969 17.945312 Z M 32.167969 17.945312 "/>
</g>
</svg>
