<?xml version="1.0" encoding="UTF-8"?>
<svg xmlns="http://www.w3.org/2000/svg" xmlns:xlink="http://www.w3.org/1999/xlink" viewBox="0 0 50 50" width="50px" height="50px">
<g id="surface54872349">
<path style=" stroke:none;fill-rule:nonzero;fill:rgb(100%,100%,100%);fill-opacity:1;" d="M 25 1 C 11.746094 1 1 11.746094 1 25 C 1 38.253906 11.746094 49 25 49 C 38.253906 49 49 38.253906 49 25 C 49 11.746094 38.253906 1 25 1 Z M 37.929688 20.070312 C 37.941406 20.335938 37.945312 20.601562 37.945312 20.863281 C 37.945312 29 31.757812 38.375 20.433594 38.375 C 16.957031 38.375 13.722656 37.359375 11 35.609375 C 11.480469 35.667969 11.972656 35.695312 12.46875 35.695312 C 15.355469 35.695312 18.007812 34.710938 20.113281 33.058594 C 17.417969 33.007812 15.144531 31.226562 14.363281 28.785156 C 14.738281 28.855469 15.125 28.894531 15.519531 28.894531 C 16.082031 28.894531 16.628906 28.816406 17.140625 28.679688 C 14.324219 28.113281 12.203125 25.625 12.203125 22.644531 C 12.203125 22.617188 12.203125 22.59375 12.203125 22.566406 C 13.035156 23.027344 13.980469 23.304688 14.992188 23.335938 C 13.34375 22.234375 12.253906 20.347656 12.253906 18.214844 C 12.253906 17.085938 12.554688 16.027344 13.085938 15.121094 C 16.121094 18.84375 20.65625 21.296875 25.773438 21.550781 C 25.667969 21.101562 25.613281 20.632812 25.613281 20.148438 C 25.613281 16.753906 28.371094 13.992188 31.769531 13.992188 C 33.539062 13.992188 35.136719 14.742188 36.261719 15.9375 C 37.660156 15.660156 38.980469 15.148438 40.171875 14.445312 C 39.710938 15.882812 38.734375 17.085938 37.460938 17.851562 C 38.707031 17.703125 39.890625 17.371094 40.996094 16.882812 C 40.175781 18.117188 39.132812 19.199219 37.929688 20.070312 Z M 37.929688 20.070312 "/>
</g>
</svg>
